<svg xmlns="http://www.w3.org/2000/svg" width="840" height="640" viewBox="0 0 840 640">
<rect width="100%" height="100%" fill="white"/>
<style>text{font-family:Arial,sans-serif;letter-spacing:0;fill:#111827}.axis{stroke:#6b7280;stroke-width:1}.grid{stroke:#e5e7eb;stroke-width:1}</style>
<text x="20" y="25" font-size="16" font-weight="700">GRPO clipping-margin distribution by policy iteration</text>
<text x="65" y="45" font-size="13" font-weight="700">policy_iteration=0 (n=39936)</text>
<line class="axis" x1="65" y1="180" x2="825" y2="180"/>
<rect x="65.50" y="180.00" width="28.23" height="0.00" fill="#2563eb"/>
<rect x="94.73" y="180.00" width="28.23" height="0.00" fill="#2563eb"/>
<rect x="123.96" y="180.00" width="28.23" height="0.00" fill="#2563eb"/>
<rect x="153.19" y="180.00" width="28.23" height="0.00" fill="#2563eb"/>
<rect x="182.42" y="180.00" width="28.23" height="0.00" fill="#2563eb"/>
<rect x="211.65" y="180.00" width="28.23" height="0.00" fill="#2563eb"/>
<rect x="240.88" y="180.00" width="28.23" height="0.00" fill="#2563eb"/>
<rect x="270.12" y="180.00" width="28.23" height="0.00" fill="#2563eb"/>
<rect x="299.35" y="180.00" width="28.23" height="0.00" fill="#2563eb"/>
<rect x="328.58" y="180.00" width="28.23" height="0.00" fill="#2563eb"/>
<rect x="357.81" y="180.00" width="28.23" height="0.00" fill="#2563eb"/>
<rect x="387.04" y="180.00" width="28.23" height="0.00" fill="#2563eb"/>
<rect x="416.27" y="180.00" width="28.23" height="0.00" fill="#2563eb"/>
<rect x="445.50" y="180.00" width="28.23" height="0.00" fill="#2563eb"/>
<rect x="474.73" y="180.00" width="28.23" height="0.00" fill="#2563eb"/>
<rect x="503.96" y="180.00" width="28.23" height="0.00" fill="#2563eb"/>
<rect x="533.19" y="180.00" width="28.23" height="0.00" fill="#2563eb"/>
<rect x="562.42" y="180.00" width="28.23" height="0.00" fill="#2563eb"/>
<rect x="591.65" y="180.00" width="28.23" height="0.00" fill="#2563eb"/>
<rect x="620.88" y="180.00" width="28.23" height="0.00" fill="#2563eb"/>
<rect x="650.12" y="180.00" width="28.23" height="0.00" fill="#2563eb"/>
<rect x="679.35" y="180.00" width="28.23" height="0.00" fill="#2563eb"/>
<rect x="708.58" y="55.00" width="28.23" height="125.00" fill="#2563eb"/>
<rect x="737.81" y="180.00" width="28.23" height="0.00" fill="#2563eb"/>
<rect x="767.04" y="180.00" width="28.23" height="0.00" fill="#2563eb"/>
<rect x="796.27" y="180.00" width="28.23" height="0.00" fill="#2563eb"/>
<line class="grid" x1="65.00" y1="55" x2="65.00" y2="180"/>
<text x="65.00" y="198" text-anchor="middle" font-size="10">1e-12</text>
<line class="grid" x1="240.38" y1="55" x2="240.38" y2="180"/>
<text x="240.38" y="198" text-anchor="middle" font-size="10">1e-9</text>
<line class="grid" x1="415.77" y1="55" x2="415.77" y2="180"/>
<text x="415.77" y="198" text-anchor="middle" font-size="10">1e-6</text>
<line class="grid" x1="591.15" y1="55" x2="591.15" y2="180"/>
<text x="591.15" y="198" text-anchor="middle" font-size="10">1e-3</text>
<line class="grid" x1="766.54" y1="55" x2="766.54" y2="180"/>
<text x="766.54" y="198" text-anchor="middle" font-size="10">1e0</text>
<text x="445.0" y="215" text-anchor="middle" font-size="11">clip_margin (log scale)</text>
<text x="65" y="235" font-size="13" font-weight="700">policy_iteration=1 (n=39936)</text>
<line class="axis" x1="65" y1="370" x2="825" y2="370"/>
<rect x="65.50" y="370.00" width="28.23" height="0.00" fill="#dc2626"/>
<rect x="94.73" y="370.00" width="28.23" height="0.00" fill="#dc2626"/>
<rect x="123.96" y="370.00" width="28.23" height="0.00" fill="#dc2626"/>
<rect x="153.19" y="370.00" width="28.23" height="0.00" fill="#dc2626"/>
<rect x="182.42" y="370.00" width="28.23" height="0.00" fill="#dc2626"/>
<rect x="211.65" y="370.00" width="28.23" height="0.00" fill="#dc2626"/>
<rect x="240.88" y="370.00" width="28.23" height="0.00" fill="#dc2626"/>
<rect x="270.12" y="370.00" width="28.23" height="0.00" fill="#dc2626"/>
<rect x="299.35" y="370.00" width="28.23" height="0.00" fill="#dc2626"/>
<rect x="328.58" y="370.00" width="28.23" height="0.00" fill="#dc2626"/>
<rect x="357.81" y="370.00" width="28.23" height="0.00" fill="#dc2626"/>
<rect x="387.04" y="370.00" width="28.23" height="0.00" fill="#dc2626"/>
<rect x="416.27" y="370.00" width="28.23" height="0.00" fill="#dc2626"/>
<rect x="445.50" y="370.00" width="28.23" height="0.00" fill="#dc2626"/>
<rect x="474.73" y="370.00" width="28.23" height="0.00" fill="#dc2626"/>
<rect x="503.96" y="370.00" width="28.23" height="0.00" fill="#dc2626"/>
<rect x="533.19" y="370.00" width="28.23" height="0.00" fill="#dc2626"/>
<rect x="562.42" y="369.99" width="28.23" height="0.01" fill="#dc2626"/>
<rect x="591.65" y="369.98" width="28.23" height="0.02" fill="#dc2626"/>
<rect x="620.88" y="369.94" width="28.23" height="0.06" fill="#dc2626"/>
<rect x="650.12" y="369.76" width="28.23" height="0.24" fill="#dc2626"/>
<rect x="679.35" y="368.56" width="28.23" height="1.44" fill="#dc2626"/>
<rect x="708.58" y="245.00" width="28.23" height="125.00" fill="#dc2626"/>
<rect x="737.81" y="369.85" width="28.23" height="0.15" fill="#dc2626"/>
<rect x="767.04" y="370.00" width="28.23" height="0.00" fill="#dc2626"/>
<rect x="796.27" y="370.00" width="28.23" height="0.00" fill="#dc2626"/>
<line class="grid" x1="65.00" y1="245" x2="65.00" y2="370"/>
<text x="65.00" y="388" text-anchor="middle" font-size="10">1e-12</text>
<line class="grid" x1="240.38" y1="245" x2="240.38" y2="370"/>
<text x="240.38" y="388" text-anchor="middle" font-size="10">1e-9</text>
<line class="grid" x1="415.77" y1="245" x2="415.77" y2="370"/>
<text x="415.77" y="388" text-anchor="middle" font-size="10">1e-6</text>
<line class="grid" x1="591.15" y1="245" x2="591.15" y2="370"/>
<text x="591.15" y="388" text-anchor="middle" font-size="10">1e-3</text>
<line class="grid" x1="766.54" y1="245" x2="766.54" y2="370"/>
<text x="766.54" y="388" text-anchor="middle" font-size="10">1e0</text>
<text x="445.0" y="405" text-anchor="middle" font-size="11">clip_margin (log scale)</text>
<text x="65" y="425" font-size="13" font-weight="700">policy_iteration=2 (n=39936)</text>
<line class="axis" x1="65" y1="560" x2="825" y2="560"/>
<rect x="65.50" y="560.00" width="28.23" height="0.00" fill="#059669"/>
<rect x="94.73" y="560.00" width="28.23" height="0.00" fill="#059669"/>
<rect x="123.96" y="560.00" width="28.23" height="0.00" fill="#059669"/>
<rect x="153.19" y="560.00" width="28.23" height="0.00" fill="#059669"/>
<rect x="182.42" y="560.00" width="28.23" height="0.00" fill="#059669"/>
<rect x="211.65" y="560.00" width="28.23" height="0.00" fill="#059669"/>
<rect x="240.88" y="560.00" width="28.23" height="0.00" fill="#059669"/>
<rect x="270.12" y="560.00" width="28.23" height="0.00" fill="#059669"/>
<rect x="299.35" y="560.00" width="28.23" height="0.00" fill="#059669"/>
<rect x="328.58" y="560.00" width="28.23" height="0.00" fill="#059669"/>
<rect x="357.81" y="560.00" width="28.23" height="0.00" fill="#059669"/>
<rect x="387.04" y="560.00" width="28.23" height="0.00" fill="#059669"/>
<rect x="416.27" y="560.00" width="28.23" height="0.00" fill="#059669"/>
<rect x="445.50" y="560.00" width="28.23" height="0.00" fill="#059669"/>
<rect x="474.73" y="560.00" width="28.23" height="0.00" fill="#059669"/>
<rect x="503.96" y="559.99" width="28.23" height="0.01" fill="#059669"/>
<rect x="533.19" y="559.99" width="28.23" height="0.01" fill="#059669"/>
<rect x="562.42" y="559.95" width="28.23" height="0.05" fill="#059669"/>
<rect x="591.65" y="559.87" width="28.23" height="0.13" fill="#059669"/>
<rect x="620.88" y="559.65" width="28.23" height="0.35" fill="#059669"/>
<rect x="650.12" y="558.76" width="28.23" height="1.24" fill="#059669"/>
<rect x="679.35" y="555.05" width="28.23" height="4.95" fill="#059669"/>
<rect x="708.58" y="435.00" width="28.23" height="125.00" fill="#059669"/>
<rect x="737.81" y="559.37" width="28.23" height="0.63" fill="#059669"/>
<rect x="767.04" y="559.97" width="28.23" height="0.03" fill="#059669"/>
<rect x="796.27" y="560.00" width="28.23" height="0.00" fill="#059669"/>
<line class="grid" x1="65.00" y1="435" x2="65.00" y2="560"/>
<text x="65.00" y="578" text-anchor="middle" font-size="10">1e-12</text>
<line class="grid" x1="240.38" y1="435" x2="240.38" y2="560"/>
<text x="240.38" y="578" text-anchor="middle" font-size="10">1e-9</text>
<line class="grid" x1="415.77" y1="435" x2="415.77" y2="560"/>
<text x="415.77" y="578" text-anchor="middle" font-size="10">1e-6</text>
<line class="grid" x1="591.15" y1="435" x2="591.15" y2="560"/>
<text x="591.15" y="578" text-anchor="middle" font-size="10">1e-3</text>
<line class="grid" x1="766.54" y1="435" x2="766.54" y2="560"/>
<text x="766.54" y="578" text-anchor="middle" font-size="10">1e0</text>
<text x="445.0" y="595" text-anchor="middle" font-size="11">clip_margin (log scale)</text>
</svg>
